<svg width="607" height="372" viewBox="0 0 607 372" fill="none" xmlns="http://www.w3.org/2000/svg">
<g clip-path="url(#clip0_9_27188)">
<path d="M250.626 209.77C271.875 203.837 294.053 200.871 316.263 200.284C327.336 199.99 338.44 200.343 349.418 201.547C359.402 202.662 369.547 204.307 379.084 207.361C387.404 210.005 396.237 215.056 395.437 224.248C395.469 223.983 395.501 223.749 395.501 223.484L395.693 222.339C397.901 210.328 400.142 198.346 402.35 186.335C402.638 185.043 402.67 184.837 402.446 185.689C402.51 185.454 402.574 185.189 402.638 184.955C401.006 190.329 397.165 194.704 393.421 198.962C389.741 203.132 385.933 207.332 383.308 212.148C381.964 214.645 380.972 217.053 380.332 219.755C378.476 227.625 377.26 235.847 375.819 243.777C374.636 250.238 373.099 256.816 372.491 263.365C372.011 268.475 373.611 273.291 377.356 277.138C385.132 285.126 397.613 287.328 408.782 287.358C420.463 287.358 432.304 285.449 443.889 287.593C449.809 288.709 455.57 290.97 459.73 295.082C463.923 299.222 467.923 305.419 467.475 311.262C467.507 310.998 467.539 310.763 467.539 310.499C468.019 307.621 468.531 304.772 469.011 301.895C470.963 291.704 472.883 281.484 474.836 271.294C474.803 271.441 474.772 271.558 474.739 271.705C474.803 271.47 474.868 271.206 474.932 270.971C472.276 280.368 460.275 281.66 451.506 282.13C451.282 282.13 450.034 289.09 450.225 288.209C449.266 293.114 448.338 298.018 447.441 302.952C446.545 307.856 445.617 312.789 444.785 317.694C444.689 318.31 443.889 323.832 443.825 323.832C449.202 323.538 454.866 323.274 459.699 320.924C461.746 319.926 463.635 318.545 465.075 316.842C467.283 314.199 467.699 311.027 468.339 307.827C470.291 298.018 472.115 288.18 473.844 278.342C474.42 275.023 475.444 271.499 475.284 268.093C475.156 265.626 474.228 263.247 473.076 261.045C470.803 256.787 467.667 252.822 463.347 250.15C454.578 244.775 443.249 244.628 433.104 245.039C422.384 245.48 411.375 246.655 400.878 243.923C395.245 242.455 389.709 239.9 385.645 235.965C381.58 232.03 379.788 227.067 380.268 221.663C380.236 221.928 380.204 222.163 380.204 222.427C381.004 215.585 379.852 221.722 376.747 240.81C372.811 259.782 371.691 265.89 373.387 259.195C373.323 259.43 373.259 259.694 373.195 259.929C374.924 253.703 378.924 248.446 383.244 243.483C387.404 238.696 392.269 233.968 394.509 228.065C395.597 225.187 396.045 222.075 396.621 219.109C398.925 207.391 401.422 195.585 403.054 183.78C403.438 180.902 403.214 178.083 401.773 175.469C399.469 171.328 394.925 168.685 390.381 166.893C384.941 164.72 379.02 163.457 373.227 162.312C366.047 160.904 358.78 159.904 351.466 159.317C336.808 158.083 322.023 158.318 307.366 159.522C290.789 160.873 274.339 163.663 258.402 168.097C258.018 168.215 256.962 174.911 257.122 174.177C256.161 179.081 255.233 183.985 254.338 188.919C253.441 193.823 252.513 198.757 251.681 203.661C251.49 204.748 251.297 205.834 251.137 206.921C250.849 207.831 250.721 208.8 250.626 209.77Z" fill="#E1E4E5"/>
<path d="M402.219 186.184C400.385 190.954 396.878 194.984 393.434 198.895C390.41 202.362 387.256 205.828 384.778 209.651C384.778 209.651 384.81 209.651 384.81 209.68H384.746C384.199 210.51 383.716 211.339 383.233 212.199C381.882 214.717 380.948 217.354 380.305 220.08C380.305 220.14 380.273 220.228 380.273 220.288C380.241 220.643 380.209 221.206 380.112 222.006C379.693 227.369 381.464 232.317 385.518 236.258C386.286 236.995 387.103 237.688 387.964 238.332C390.602 235.25 393.016 231.992 394.4 228.288C395.494 225.384 395.944 222.243 396.523 219.251C398.841 207.428 401.35 195.517 402.992 183.606C403.024 183.488 403.024 183.34 403.024 183.221C402.798 184.199 402.477 185.206 402.219 186.184ZM402.509 185.532C402.573 185.265 402.606 185.117 402.638 185.058C402.573 185.206 402.542 185.384 402.509 185.532Z" fill="url(#paint0_linear_9_27188)"/>
<path d="M474.979 271.797C474.947 271.886 474.947 271.944 474.915 272.032C474.947 271.886 474.979 271.768 475.011 271.62C475.011 271.679 475.011 271.738 474.979 271.797C475.011 271.62 475.075 271.443 475.107 271.296C472.447 280.727 460.428 282.024 451.647 282.496C451.423 282.496 450.173 289.48 450.365 288.596C450.301 288.95 450.237 289.274 450.173 289.628C450.237 289.657 450.333 289.687 450.397 289.716C450.365 289.746 450.333 289.775 450.301 289.775C450.237 289.805 450.173 289.864 450.109 289.893C449.236 294.39 448.381 298.889 447.545 303.391C446.648 308.314 445.718 313.265 444.885 318.187C444.789 318.806 443.988 324.347 443.923 324.347C449.308 324.052 454.98 323.787 459.819 321.429C461.87 320.427 463.762 319.041 465.204 317.332C467.415 314.68 467.832 311.497 468.473 308.284C470.428 298.44 472.255 288.567 473.985 278.694C474.402 276.336 475.011 273.889 475.299 271.473C475.203 271.649 475.107 271.827 474.979 272.003V271.797Z" fill="url(#paint1_linear_9_27188)"/>
<path d="M358.753 268.846C337.503 274.778 315.326 277.744 293.116 278.332C282.043 278.625 270.938 278.273 259.961 277.069C249.976 275.953 239.831 274.308 230.294 271.254C221.974 268.611 213.141 263.56 213.941 254.368C213.909 254.632 213.877 254.867 213.877 255.132L213.685 256.277C211.477 268.288 209.237 280.27 207.029 292.281C206.741 293.573 206.708 293.779 206.932 292.927C206.869 293.162 206.805 293.426 206.741 293.661C208.373 288.287 212.213 283.912 215.957 279.653C219.638 275.483 223.446 271.283 226.07 266.467C227.415 263.971 228.407 261.563 229.047 258.861C230.903 250.991 232.119 242.768 233.559 234.839C234.743 228.378 236.279 221.8 236.887 215.251C237.367 210.141 235.767 205.325 232.022 201.478C224.246 193.49 211.765 191.287 200.596 191.258C188.915 191.258 177.074 193.167 165.489 191.023C159.569 189.907 153.808 187.646 149.648 183.534C145.455 179.394 141.455 173.197 141.903 167.353C141.871 167.618 141.839 167.853 141.839 168.117C141.359 170.995 140.848 173.843 140.367 176.721C138.415 186.912 136.495 197.131 134.543 207.322C134.575 207.175 134.607 207.058 134.639 206.911C134.575 207.146 134.511 207.41 134.446 207.645C137.103 198.247 149.104 196.955 157.873 196.485C158.097 196.485 159.345 189.525 159.153 190.406C160.113 185.502 161.041 180.598 161.937 175.664C162.833 170.76 163.761 165.826 164.593 160.922C164.689 160.305 165.489 154.784 165.553 154.784C160.177 155.077 154.513 155.342 149.68 157.691C147.632 158.69 145.743 160.07 144.303 161.773C142.095 164.416 141.679 167.588 141.039 170.789C139.093 180.599 137.258 190.428 135.535 200.274C134.959 203.592 133.935 207.117 134.094 210.523C134.223 212.99 135.151 215.369 136.303 217.571C138.575 221.829 141.712 225.794 146.031 228.466C154.8 233.84 166.129 233.987 176.274 233.576C186.995 233.135 198.004 231.961 208.5 234.692C214.133 236.16 219.67 238.715 223.734 242.651C227.798 246.586 229.59 251.549 229.111 256.952C229.142 256.688 229.174 256.453 229.174 256.189C228.374 263.031 229.526 256.894 232.631 237.805C236.567 218.834 237.687 212.726 235.991 219.421C236.055 219.186 236.119 218.922 236.183 218.687C234.455 224.913 230.454 230.169 226.134 235.132C221.974 239.919 217.11 244.648 214.869 250.551C213.781 253.428 213.333 256.541 212.757 259.507C210.453 271.225 207.957 283.031 206.325 294.836C205.94 297.714 206.165 300.533 207.605 303.147C209.909 307.287 214.453 309.931 218.997 311.722C224.438 313.895 230.359 315.158 236.151 316.303C243.331 317.712 250.599 318.712 257.913 319.299C272.57 320.533 287.355 320.298 302.012 319.093C318.59 317.743 335.039 314.952 350.976 310.518C351.361 310.4 352.417 303.705 352.256 304.439C353.217 299.535 354.145 294.631 355.041 289.697C355.937 284.793 356.865 279.859 357.697 274.954C357.889 273.868 358.081 272.781 358.241 271.694C358.529 270.784 358.657 269.815 358.753 268.846Z" fill="#E1E4E5"/>
<path d="M207.159 292.432C208.993 287.661 212.501 283.632 215.944 279.721C218.969 276.254 222.122 272.788 224.6 268.965C224.6 268.965 224.568 268.965 224.568 268.936H224.632C225.179 268.106 225.662 267.276 226.145 266.417C227.496 263.899 228.43 261.261 229.073 258.536C229.073 258.476 229.105 258.387 229.105 258.328C229.138 257.973 229.17 257.41 229.267 256.609C229.685 251.247 227.915 246.299 223.86 242.358C223.092 241.621 222.275 240.928 221.415 240.283C218.776 243.365 216.362 246.624 214.978 250.328C213.885 253.232 213.434 256.372 212.855 259.365C210.538 271.187 208.028 283.099 206.387 295.01C206.354 295.128 206.354 295.276 206.354 295.395C206.58 294.417 206.901 293.409 207.159 292.432ZM206.87 293.084C206.805 293.35 206.773 293.499 206.741 293.558C206.805 293.409 206.837 293.232 206.87 293.084Z" fill="url(#paint2_linear_9_27188)"/>
<path d="M134.4 206.819C134.432 206.73 134.432 206.671 134.464 206.583C134.432 206.73 134.4 206.848 134.368 206.996C134.368 206.937 134.368 206.878 134.4 206.819C134.368 206.996 134.303 207.172 134.272 207.32C136.932 197.889 148.95 196.592 157.732 196.12C157.956 196.12 159.206 189.135 159.013 190.019C159.077 189.666 159.141 189.342 159.206 188.988C159.141 188.959 159.045 188.929 158.981 188.9C159.013 188.87 159.045 188.841 159.077 188.841C159.142 188.811 159.206 188.752 159.27 188.722C160.143 184.226 160.998 179.727 161.834 175.224C162.731 170.302 163.661 165.351 164.494 160.429C164.59 159.81 165.391 154.269 165.455 154.269C160.071 154.564 154.399 154.829 149.559 157.187C147.508 158.189 145.617 159.574 144.175 161.284C141.963 163.936 141.546 167.119 140.906 170.331C138.95 180.176 137.124 190.049 135.393 199.922C134.977 202.28 134.368 204.726 134.079 207.143C134.175 206.967 134.272 206.789 134.4 206.613V206.819Z" fill="url(#paint3_linear_9_27188)"/>
<path d="M318.441 280.438C360.576 280.438 394.733 249.039 394.733 210.305C394.733 171.572 360.576 140.172 318.441 140.172C276.306 140.172 242.149 171.572 242.149 210.305C242.149 249.039 276.306 280.438 318.441 280.438Z" fill="#318ECC"/>
<path d="M258.585 186.537C253.748 185.035 249.557 181.836 247.109 177.733C246.418 176.601 245.853 175.301 246.039 174.014C246.087 173.752 246.159 173.442 246.416 173.32C246.646 173.198 246.958 173.265 247.218 173.332C255.295 175.335 263.835 178.712 272.314 178.355C272.702 178.351 273.089 178.321 273.428 178.459C273.844 178.62 274.109 178.973 274.296 179.351C274.937 180.578 275.493 182.901 275.283 184.283C275.026 185.927 273.296 186.165 271.776 186.519C267.448 187.531 262.901 187.88 258.585 186.537Z" fill="#F8AE9D"/>
<path d="M257.838 177.321C257.187 177.069 256.511 176.817 255.812 176.803C255.113 176.789 254.343 177.132 254.121 177.753C253.972 178.184 254.109 178.634 254.297 179.036C254.805 180.075 255.699 180.918 256.642 181.666C260.258 184.469 264.891 186.164 269.629 186.43C271.726 186.544 273.922 186.37 275.769 185.465C274.846 184.431 275.029 182.955 274.93 181.648C274.634 177.824 271.088 179.276 268.243 179.269C264.672 179.199 261.118 178.559 257.838 177.321Z" fill="#F8AE9D"/>
<path d="M366.062 149.036L366.225 149.461C367.361 152.489 368.241 155.616 368.603 158.82C369.27 164.708 368.013 171.598 363.195 175.874C356.771 181.575 346.464 182.456 338.087 181.099C334.658 180.548 331.429 179.229 328.686 177.259C325.956 179.533 323.022 182.023 320.581 184.554C315.677 182.977 311.009 180.837 306.689 178.185C296.465 182.489 286.037 185.393 275.026 187.496C273.768 184.618 272.885 181.613 272.395 178.544C272.31 178.047 279.171 173.79 279.963 173.184C282.339 171.344 287.287 167.137 287.287 167.137C287.287 167.137 281.05 162.255 278.322 159.962C275.435 157.58 272.667 155.08 270.024 152.469C267.841 150.312 265.709 148.035 264.371 145.343C263.033 142.674 262.542 139.519 263.66 136.745C267.191 128.112 281.441 131.147 288.061 134.121C293.533 136.59 298.326 140.184 302.939 143.829C304.8 145.278 306.635 146.774 308.444 148.247C309.87 146.895 311.445 145.138 312.793 143.715C314.241 142.173 315.899 140.724 317.901 139.816C320.006 138.835 321.949 138.975 324.194 138.682C325.201 138.549 326.179 138.274 327.16 138.117C330.1 137.624 333.213 138.151 335.796 139.542C338.25 140.863 340.242 142.429 343.121 142.935C346.39 143.508 350.186 143.17 353.465 142.767C356.407 142.393 359.398 141.781 362.33 142.31C363.549 142.531 364.015 144.094 364.418 144.992C364.957 146.293 365.522 147.64 366.062 149.036ZM340.088 49.4549C340.088 49.4549 348.003 48.2974 350.128 61.1419C352.49 75.4205 358.796 73.0713 368.811 84.666C374.663 91.4407 368.504 103.405 355.987 103.168C343.471 102.937 332.167 99.6098 324.968 101.033C317.768 102.457 317.373 85.5048 324.476 80.2745C331.58 75.0442 316.434 60.0253 325.664 53.3367C334.893 46.6488 340.088 49.4549 340.088 49.4549Z" fill="#31446C"/>
<path d="M387.397 106.091C388.118 104.728 388.075 103.144 387.814 101.666C386.686 95.3213 381.849 90.0191 376.305 86.1342C370.743 82.2387 364.377 79.458 358.525 75.9674C357.006 75.0585 355.483 74.0795 353.739 73.5885C351.996 73.0968 349.969 73.1501 348.529 74.1837C347.513 74.9091 346.925 76.03 346.583 77.1522C345.834 79.6081 346.121 82.209 346.578 84.7001C347.15 87.8423 347.988 90.9522 349.366 93.8401C350.47 96.1701 352.268 98.5677 354.969 99.024C355.751 101.808 357.36 104.418 359.617 106.414C362.198 108.703 365.472 110.2 368.868 111.246C371.999 112.211 375.422 112.841 378.57 111.94C380.439 111.416 382.084 110.406 383.694 109.376C385.13 108.498 386.621 107.538 387.397 106.091ZM359.11 101.86L357.262 99.1641C357.653 99.1956 358.038 99.2792 358.403 99.4121C359.418 99.8157 360.029 101.284 359.11 101.86Z" fill="#31446C"/>
<path d="M324.872 60.7501C324.777 61.2269 324.759 61.7266 324.795 62.2964C325.004 65.6267 325.783 68.906 327.102 72.0136C327.909 73.8569 328.896 75.6741 330.292 77.2005C330.872 77.8342 331.528 78.4195 332.385 78.6451C333.269 78.8708 334.381 78.9031 335.258 78.7003C336.03 81.6379 335.708 87.1832 332.949 89.2664C332.105 89.8963 331.103 90.2912 330.1 90.6378C328.146 91.331 326.111 91.8586 324.074 92.2678C321.754 92.7278 319.225 93.0725 317.595 94.6411C317.392 94.834 317.189 95.0981 317.271 95.3585C317.325 95.5246 317.456 95.6412 317.613 95.7342C318.896 96.6915 320.483 97.216 322.069 97.717C324.851 98.5819 327.709 99.3029 330.613 99.7853C333.648 100.29 336.782 100.532 339.855 100.227C342.231 99.98 344.576 99.4238 346.732 98.443C348.991 97.4125 351.305 96.5718 353.643 95.5879C355.621 94.7521 357.571 93.7973 359.712 93.4582C358.7 91.6887 356.589 90.6961 354.485 90.2261C352.383 89.7797 350.184 89.7394 348.057 89.3649C347.356 89.2316 346.655 89.0754 346.053 88.6792C344.406 87.5849 344.857 85.1527 344.831 83.5599L344.748 78.5205C344.992 76.1149 346.071 74.103 347.018 71.902C348.463 68.5286 348.761 64.6964 347.488 61.2424C346.216 57.8125 343.321 54.8328 339.602 53.6244C335.883 52.416 331.42 53.0968 328.564 55.6097C326.754 57.2279 325.278 58.6762 324.872 60.7501Z" fill="#F8AE9D"/>
<path d="M336.309 50.0327C332.602 49.6526 329.225 51.3211 326.721 53.9077C324.614 56.0758 323.376 58.9378 323.439 61.8133C323.447 62.2244 323.497 62.6714 323.75 63.0409C324.419 63.925 325.875 63.5995 326.964 63.2058C328.738 62.5753 330.059 61.6546 331.668 60.8777C333.277 60.1009 335.23 60.2143 336.67 59.1417C338.029 58.1082 342.696 55.9301 342.821 54.2468C342.98 52.1897 338.88 50.5089 337.166 50.1672C336.92 50.0966 336.635 50.0643 336.309 50.0327Z" fill="#31446C"/>
<path d="M346.987 54.6908C350.122 56.549 351.593 59.8046 351.756 63.2636C351.898 66.1677 350.89 69.1052 348.866 71.2982C348.576 71.6113 348.23 71.9287 347.781 72.0682C346.654 72.3646 345.75 71.2665 345.177 70.3291C344.234 68.8101 343.843 67.3289 343.13 65.7926C342.417 64.2562 340.825 63.2096 340.447 61.5418C340.103 59.9509 337.983 55.5526 339.043 54.1744C340.334 52.4874 344.667 53.5668 346.231 54.2971C346.47 54.3852 346.713 54.5265 346.987 54.6908Z" fill="#31446C"/>
<path d="M319.108 93.9064C318.613 93.6993 318.021 93.85 317.691 94.2592C313.994 99.0189 312.566 104.983 311.315 110.731C309.898 117.267 308.635 123.823 307.424 130.379C307.352 130.713 307.306 131.07 307.466 131.377C307.627 131.684 307.992 131.846 308.33 131.984C310.467 132.929 312.629 133.85 314.766 134.795C317.071 129.972 318.733 124.911 319.716 119.721C321.087 122.912 323.565 125.684 326.724 127.494C324.37 130.594 321.472 136.794 318.646 139.52C318.214 139.954 315.538 139.278 314.94 139.096C314.568 140.077 316.31 139.029 316.3 140.028C317.908 140.244 319.962 139.359 321.615 139.169C323.608 138.955 325.62 138.943 327.615 139.134C330.932 139.468 334.155 140.421 337.101 141.854C338.567 142.571 339.972 143.386 341.307 144.293C342.458 145.085 345.308 146.947 345.308 146.947C345.517 147.087 346.497 146.883 346.728 146.832C347.4 146.728 348.071 146.647 348.768 146.59C350.483 146.467 352.189 146.261 353.88 145.972C357.259 145.401 360.581 144.523 363.768 143.313C364.075 143.095 362.981 141.017 362.922 140.614C362.98 140.994 369.258 140.525 369.877 140.422C372.353 139.959 374.858 139.71 377.333 139.224C376.224 130.06 373.181 121.21 370.19 112.43C369.021 108.974 367.826 105.52 366.168 102.262C364.404 98.7901 362.125 95.5407 359.388 92.654C359.309 92.5839 359.179 92.5381 359.076 92.5635C357.762 92.8673 349.749 94.7626 345.761 96.126C343.73 96.844 341.672 97.4912 339.587 98.1385C338.763 98.3878 337.914 98.637 337.06 98.6252C336.49 98.6097 335.92 98.4987 335.375 98.3871C329.82 97.2519 324.265 96.0218 319.108 93.9064Z" fill="#318ECC"/>
<path d="M355.261 112.163C355.49 113.467 355.796 114.795 356.102 116.098C356.847 119.056 357.802 121.966 358.962 124.809C359.554 126.228 360.172 127.621 360.868 129.015C361.216 129.7 361.563 130.384 361.937 131.069C362.123 131.399 362.31 131.753 362.496 132.084C362.656 132.366 362.842 132.625 363.001 132.885C361.888 132.853 356.396 133.144 355.26 133.231" stroke="white" stroke-width="1.376" stroke-miterlimit="10" stroke-linecap="round"/>
<path d="M355.081 134.255C355.196 134.92 355.336 135.583 355.502 136.247L356.001 138.238C356.166 138.806 356.54 139.514 356.549 140.108C356.548 139.99 352.144 139.647 351.73 139.605C347.145 139.194 342.536 138.949 337.953 138.68C334.976 138.507 332.054 138.572 329.08 138.59C328.2 138.602 327.164 138.522 326.688 137.862C326.291 137.297 326.615 136.579 326.296 136.061C326.09 136.111 323.694 136.668 323.718 136.619C323.623 137.12 323.434 138.169 322.869 138.415C322.663 138.489 322.457 138.516 322.25 138.519C321.939 138.523 321.628 138.48 321.317 138.437C321.269 138.437 321.223 138.42 321.187 138.391C321.135 138.344 321.185 138.272 321.236 138.2C321.941 137.242 322.31 136.108 322.294 134.951C323.037 134.489 323.778 133.955 324.415 133.376C324.924 132.893 325.302 132.27 325.865 131.858C326.452 131.398 327.025 131.675 327.675 131.832C328.426 131.987 329.171 132.167 329.908 132.372C331.338 132.78 332.769 133.283 333.972 134.099C334.39 134.378 334.783 134.682 335.277 134.818C335.745 134.954 336.262 134.947 336.753 134.94C339.779 134.874 342.803 134.736 345.798 134.433C348.872 134.128 350.967 134.17 354.994 133.615C354.994 133.639 354.997 133.852 355.081 134.255Z" fill="#F8AE9D"/>
<path d="M321.765 111.899C321.045 114.78 320.512 117.697 320.167 120.636" stroke="white" stroke-width="1.376" stroke-miterlimit="10" stroke-linecap="round"/>
<path d="M260.766 107.157L269.645 143.557L337.064 142.616C337.028 140.476 335.111 138.744 332.758 138.776L316.647 139.002L308.618 105.514C308.494 104.988 308.176 104.517 307.718 104.181C307.26 103.845 306.69 103.665 306.104 103.671L263.227 104.27C261.598 104.316 260.405 105.688 260.766 107.157Z" fill="#31446C"/>
<path d="M348.837 196.096C348.526 194.436 347.644 192.736 346.818 191.249C343.406 185.162 337.309 180.872 330.741 177.92C330.064 177.621 329.387 177.321 328.684 177.093C328.737 177.164 328.79 177.234 328.843 177.329L328.844 177.352L328.869 177.352C328.791 177.305 328.738 177.259 328.66 177.212C326.006 179.413 323.175 181.83 320.758 184.266C322.355 185.456 324.673 186.423 325.825 187.215C328.545 189.055 331.164 191.016 333.986 192.736C337.776 195.085 341.814 196.789 346.327 197.534C348.065 197.819 348.974 198.115 348.954 196.879C348.925 196.689 348.895 196.428 348.837 196.096Z" fill="#F8AE9D"/>
<path d="M344.437 191.307C342.68 188.264 339.951 185.948 336.969 183.897C334.875 182.452 332.656 181.151 330.538 179.825C329.937 179.453 328.757 178.447 327.74 177.962C325.622 179.727 323.454 181.589 321.494 183.518C327.969 187.138 333.737 191.86 340.841 194.424C341.492 194.653 342.169 194.881 342.867 194.895C343.565 194.909 344.311 194.637 344.716 194.108C345.349 193.291 344.943 192.179 344.437 191.307Z" fill="#F8AE9D"/>
<path d="M436.202 213.416C429.029 214.978 421.443 209.386 421.443 209.386C421.443 209.386 425.491 201.264 432.666 199.708C439.839 198.145 447.423 203.733 447.423 203.733C447.423 203.733 443.374 211.854 436.202 213.416Z" fill="url(#paint4_linear_9_27188)"/>
<path d="M393.355 314.818C399.712 318.844 409.425 316.03 409.425 316.03C409.425 316.03 408.823 306.69 402.461 302.668C396.104 298.643 386.396 301.453 386.396 301.453C386.396 301.453 386.997 310.793 393.355 314.818Z" fill="url(#paint5_linear_9_27188)"/>
<path d="M102.558 241.109C112.613 250.518 131.418 248.534 131.418 248.534C131.418 248.534 133.906 231.296 123.841 221.893C113.785 212.485 94.9901 214.463 94.9901 214.463C94.9901 214.463 92.5021 231.701 102.558 241.109Z" fill="url(#paint6_linear_9_27188)"/>
<path d="M488.703 185.283C482.986 185.283 478.352 189.543 478.352 194.798C478.352 200.054 482.986 204.314 488.703 204.314C494.419 204.314 499.053 200.054 499.053 194.798C499.053 189.543 494.419 185.283 488.703 185.283Z" fill="#318ECC"/>
<path d="M191.592 243.04C186.722 243.04 182.774 246.669 182.774 251.146C182.774 255.623 186.722 259.252 191.592 259.252C196.462 259.252 200.41 255.623 200.41 251.146C200.41 246.669 196.462 243.04 191.592 243.04Z" fill="#318ECC"/>
<path d="M169.733 139.373C165.287 139.373 161.683 136.059 161.683 131.972C161.683 127.885 165.287 124.571 169.733 124.571C174.18 124.571 177.784 127.885 177.784 131.972C177.784 136.059 174.18 139.373 169.733 139.373Z" fill="#318ECC"/>
<path d="M415.81 145.717C410.545 145.717 406.277 141.793 406.277 136.953C406.277 132.113 410.545 128.189 415.81 128.189C421.075 128.189 425.343 132.113 425.343 136.953C425.343 141.793 421.075 145.717 415.81 145.717Z" fill="#318ECC"/>
<path d="M462.249 229.817C460.132 229.817 458.416 228.239 458.416 226.293C458.416 224.346 460.132 222.768 462.249 222.768C464.367 222.768 466.083 224.346 466.083 226.293C466.083 228.239 464.367 229.817 462.249 229.817Z" fill="#E1E4E5"/>
<path d="M155.459 261.64C151.921 261.64 149.052 259.003 149.052 255.75C149.052 252.497 151.921 249.86 155.459 249.86C158.998 249.86 161.867 252.497 161.867 255.75C161.867 259.003 158.998 261.64 155.459 261.64Z" fill="#E1E4E5"/>
<path d="M465.159 153.98C462.705 153.98 460.716 152.151 460.716 149.896C460.716 147.64 462.705 145.811 465.159 145.811C467.613 145.811 469.602 147.64 469.602 149.896C469.602 152.151 467.613 153.98 465.159 153.98Z" fill="#E1E4E5"/>
<path d="M451.395 100.482C447.649 100.482 444.613 97.6908 444.613 94.2474C444.613 90.8041 447.649 88.0127 451.395 88.0127C455.141 88.0127 458.177 90.8041 458.177 94.2474C458.177 97.6908 455.141 100.482 451.395 100.482Z" fill="#E1E4E5"/>
<path d="M216.773 166.999C217.407 169.175 216.002 171.411 213.635 171.994C211.269 172.577 208.836 171.286 208.202 169.11C207.568 166.935 208.972 164.698 211.339 164.115C213.706 163.532 216.138 164.824 216.773 166.999Z" fill="#E1E4E5"/>
<path d="M129.862 154.974C127.533 154.974 125.645 153.238 125.645 151.097C125.645 148.956 127.533 147.22 129.862 147.22C132.191 147.22 134.08 148.956 134.08 151.097C134.08 153.238 132.191 154.974 129.862 154.974Z" fill="#E1E4E5"/>
<path d="M511.764 113.387H511.883C512.587 122.547 519.997 122.688 519.997 122.688C519.997 122.688 511.825 122.835 511.825 133.419C511.825 122.835 503.654 122.688 503.654 122.688C503.654 122.688 511.061 122.547 511.764 113.387ZM405.953 66.867H406.072C406.774 76.0269 414.185 76.1677 414.185 76.1677C414.185 76.1677 406.014 76.3146 406.014 86.8986C406.014 76.3146 397.842 76.1677 397.842 76.1677C397.842 76.1677 405.249 76.0269 405.953 66.867ZM411.32 215.591H411.439C412.142 224.751 419.552 224.893 419.552 224.893C419.552 224.893 411.381 225.039 411.381 235.623C411.381 225.039 403.209 224.893 403.209 224.893C403.209 224.893 410.617 224.751 411.32 215.591ZM182.731 280.438H182.803C183.232 286.025 187.752 286.111 187.752 286.111C187.752 286.111 182.768 286.201 182.768 292.656C182.768 286.201 177.784 286.111 177.784 286.111C177.784 286.111 182.302 286.025 182.731 280.438ZM221.932 121.846H222.051C222.754 131.005 230.165 131.147 230.165 131.147C230.165 131.147 221.993 131.293 221.993 141.877C221.993 131.293 213.822 131.147 213.822 131.147C213.822 131.147 221.229 131.005 221.932 121.846ZM217.201 55.5892H217.34C218.165 66.5477 226.857 66.7164 226.857 66.7164C226.857 66.7164 217.272 66.8918 217.272 79.5541C217.272 66.8918 207.688 66.7164 207.688 66.7164C207.688 66.7164 216.376 66.5477 217.201 55.5892Z" fill="#E1E4E5"/>
</g>
<defs>
<linearGradient id="paint0_linear_9_27188" x1="415.903" y1="209.602" x2="355.056" y2="209.897" gradientUnits="userSpaceOnUse">
<stop stop-color="white"/>
<stop offset="1" stop-color="#EEEEEE"/>
</linearGradient>
<linearGradient id="paint1_linear_9_27188" x1="492.89" y1="296.69" x2="409.784" y2="297.262" gradientUnits="userSpaceOnUse">
<stop stop-color="white"/>
<stop offset="1" stop-color="#EEEEEE"/>
</linearGradient>
<linearGradient id="paint2_linear_9_27188" x1="193.475" y1="269.014" x2="254.323" y2="268.719" gradientUnits="userSpaceOnUse">
<stop stop-color="white"/>
<stop offset="1" stop-color="#EEEEEE"/>
</linearGradient>
<linearGradient id="paint3_linear_9_27188" x1="116.488" y1="181.925" x2="199.594" y2="181.353" gradientUnits="userSpaceOnUse">
<stop stop-color="white"/>
<stop offset="1" stop-color="#EEEEEE"/>
</linearGradient>
<linearGradient id="paint4_linear_9_27188" x1="409.191" y1="217.3" x2="469.948" y2="186.076" gradientUnits="userSpaceOnUse">
<stop stop-color="white"/>
<stop offset="1" stop-color="#EEEEEE"/>
</linearGradient>
<linearGradient id="paint5_linear_9_27188" x1="418.12" y1="328.026" x2="372.48" y2="275.675" gradientUnits="userSpaceOnUse">
<stop stop-color="white"/>
<stop offset="1" stop-color="#EEEEEE"/>
</linearGradient>
<linearGradient id="paint6_linear_9_27188" x1="142.679" y1="273.246" x2="78.3621" y2="163.572" gradientUnits="userSpaceOnUse">
<stop stop-color="white"/>
<stop offset="1" stop-color="#EEEEEE"/>
</linearGradient>
<clipPath id="clip0_9_27188">
<rect width="607" height="372" fill="white"/>
</clipPath>
</defs>
</svg>
