<svg width="541" height="208" viewBox="0 0 541 208" fill="none" xmlns="http://www.w3.org/2000/svg">
<path d="M24.8656 94.913H48.7708V109H6.6166V34.083H24.8656V94.913ZM114.598 78.2648C114.598 79.9723 114.491 81.751 114.277 83.6008H72.977C73.2616 87.3004 74.4355 90.1462 76.4988 92.1383C78.6332 94.0593 81.23 95.0198 84.2893 95.0198C88.8426 95.0198 92.0086 93.0988 93.7873 89.2569H113.21C112.214 93.17 110.4 96.6917 107.768 99.8221C105.206 102.953 101.969 105.407 98.0561 107.186C94.143 108.964 89.7675 109.854 84.9296 109.854C79.0956 109.854 73.9019 108.609 69.3486 106.119C64.7952 103.628 61.2379 100.071 58.6766 95.4466C56.1154 90.8221 54.8347 85.415 54.8347 79.2253C54.8347 73.0356 56.0798 67.6285 58.5699 63.0039C61.1312 58.3794 64.6885 54.8221 69.2418 52.332C73.7952 49.8419 79.0245 48.5968 84.9296 48.5968C90.6924 48.5968 95.815 49.8063 100.297 52.2253C104.779 54.6443 108.266 58.0949 110.756 62.5771C113.317 67.0593 114.598 72.2885 114.598 78.2648ZM95.9217 73.4625C95.9217 70.332 94.8545 67.8419 92.7201 65.9921C90.5857 64.1423 87.9177 63.2174 84.7162 63.2174C81.6569 63.2174 79.06 64.1067 76.9256 65.8854C74.8624 67.664 73.5818 70.1897 73.0837 73.4625H95.9217ZM121.585 79.1186C121.585 73 122.723 67.6285 125 63.0039C127.347 58.3794 130.513 54.8221 134.498 52.332C138.482 49.8419 142.928 48.5968 147.837 48.5968C152.035 48.5968 155.699 49.4506 158.83 51.1581C162.031 52.8656 164.486 55.1067 166.193 57.8814V49.4506H184.442V109H166.193V100.569C164.415 103.344 161.924 105.585 158.723 107.292C155.592 109 151.928 109.854 147.731 109.854C142.893 109.854 138.482 108.609 134.498 106.119C130.513 103.557 127.347 99.9644 125 95.3399C122.723 90.6443 121.585 85.2372 121.585 79.1186ZM166.193 79.2253C166.193 74.6719 164.913 71.079 162.351 68.4466C159.861 65.8142 156.802 64.498 153.173 64.498C149.545 64.498 146.45 65.8142 143.889 68.4466C141.399 71.0079 140.154 74.5652 140.154 79.1186C140.154 83.6719 141.399 87.3004 143.889 90.004C146.45 92.6364 149.545 93.9526 153.173 93.9526C156.802 93.9526 159.861 92.6364 162.351 90.004C164.913 87.3715 166.193 83.7787 166.193 79.2253ZM216.882 59.3755C219.016 56.1028 221.684 53.5415 224.886 51.6917C228.087 49.7708 231.645 48.8103 235.558 48.8103V68.1265H230.542C225.988 68.1265 222.573 69.1225 220.297 71.1146C218.02 73.0356 216.882 76.4506 216.882 81.3597V109H198.633V49.4506H216.882V59.3755ZM281.553 48.8103C288.525 48.8103 294.075 51.087 298.201 55.6403C302.399 60.1225 304.498 66.3123 304.498 74.2095V109H286.355V76.664C286.355 72.6798 285.324 69.585 283.261 67.3794C281.197 65.1739 278.423 64.0711 274.936 64.0711C271.45 64.0711 268.676 65.1739 266.612 67.3794C264.549 69.585 263.517 72.6798 263.517 76.664V109H245.268V49.4506H263.517V57.3478C265.367 54.7154 267.857 52.6522 270.988 51.1581C274.118 49.5929 277.64 48.8103 281.553 48.8103ZM336.416 94.913H360.321V109H318.167V34.083H336.416V94.913ZM366.385 79.1186C366.385 73 367.524 67.6285 369.8 63.0039C372.148 58.3794 375.314 54.8221 379.298 52.332C383.282 49.8419 387.729 48.5968 392.638 48.5968C396.836 48.5968 400.5 49.4506 403.63 51.1581C406.832 52.8656 409.286 55.1067 410.994 57.8814V49.4506H429.243V109H410.994V100.569C409.215 103.344 406.725 105.585 403.524 107.292C400.393 109 396.729 109.854 392.531 109.854C387.694 109.854 383.282 108.609 379.298 106.119C375.314 103.557 372.148 99.9644 369.8 95.3399C367.524 90.6443 366.385 85.2372 366.385 79.1186ZM410.994 79.2253C410.994 74.6719 409.713 71.079 407.152 68.4466C404.662 65.8142 401.603 64.498 397.974 64.498C394.346 64.498 391.251 65.8142 388.69 68.4466C386.199 71.0079 384.954 74.5652 384.954 79.1186C384.954 83.6719 386.199 87.3004 388.69 90.004C391.251 92.6364 394.346 93.9526 397.974 93.9526C401.603 93.9526 404.662 92.6364 407.152 90.004C409.713 87.3715 410.994 83.7787 410.994 79.2253ZM461.682 57.8814C463.39 55.1067 465.844 52.8656 469.046 51.1581C472.248 49.4506 475.912 48.5968 480.038 48.5968C484.947 48.5968 489.394 49.8419 493.378 52.332C497.362 54.8221 500.493 58.3794 502.769 63.0039C505.117 67.6285 506.291 73 506.291 79.1186C506.291 85.2372 505.117 90.6443 502.769 95.3399C500.493 99.9644 497.362 103.557 493.378 106.119C489.394 108.609 484.947 109.854 480.038 109.854C475.841 109.854 472.176 109.036 469.046 107.399C465.916 105.692 463.461 103.451 461.682 100.676V109H443.433V30.0277H461.682V57.8814ZM487.722 79.1186C487.722 74.5652 486.441 71.0079 483.88 68.4466C481.39 65.8142 478.295 64.498 474.595 64.498C470.967 64.498 467.872 65.8142 465.311 68.4466C462.821 71.079 461.576 74.6719 461.576 79.2253C461.576 83.7787 462.821 87.3715 465.311 90.004C467.872 92.6364 470.967 93.9526 474.595 93.9526C478.224 93.9526 481.319 92.6364 483.88 90.004C486.441 87.3004 487.722 83.6719 487.722 79.1186ZM525.391 109.854C522.189 109.854 519.557 108.929 517.493 107.079C515.501 105.158 514.505 102.81 514.505 100.036C514.505 97.1897 515.501 94.8063 517.493 92.8854C519.557 90.9644 522.189 90.004 525.391 90.004C528.521 90.004 531.082 90.9644 533.074 92.8854C535.138 94.8063 536.169 97.1897 536.169 100.036C536.169 102.81 535.138 105.158 533.074 107.079C531.082 108.929 528.521 109.854 525.391 109.854Z" fill="#1F4DE5"/>
<path d="M7.96838 189.49H19.5415V193H3.65217V159.941H7.96838V189.49ZM48.8288 179.008C48.8288 179.83 48.7814 180.7 48.6865 181.617H27.9118C28.0699 184.178 28.9395 186.186 30.5205 187.64C32.1332 189.063 34.0778 189.775 36.3545 189.775C38.2201 189.775 39.7695 189.348 41.0027 188.494C42.2675 187.609 43.1529 186.439 43.6588 184.984H48.3071C47.6114 187.482 46.2201 189.522 44.1332 191.103C42.0462 192.652 39.4533 193.427 36.3545 193.427C33.8881 193.427 31.6747 192.874 29.7142 191.767C27.7853 190.66 26.2675 189.095 25.1608 187.071C24.0541 185.016 23.5007 182.644 23.5007 179.957C23.5007 177.269 24.0383 174.913 25.1134 172.889C26.1885 170.866 27.6905 169.316 29.6193 168.241C31.5798 167.134 33.8249 166.581 36.3545 166.581C38.8209 166.581 41.0027 167.119 42.9 168.194C44.7972 169.269 46.2517 170.755 47.2636 172.652C48.3071 174.518 48.8288 176.636 48.8288 179.008ZM44.3703 178.107C44.3703 176.462 44.0067 175.055 43.2794 173.885C42.5521 172.684 41.5561 171.783 40.2913 171.182C39.0581 170.549 37.6826 170.233 36.1648 170.233C33.983 170.233 32.1173 170.929 30.5679 172.32C29.0501 173.711 28.1806 175.64 27.9592 178.107H44.3703ZM53.9016 179.909C53.9016 177.253 54.4391 174.929 55.5142 172.937C56.5893 170.913 58.0597 169.348 59.9253 168.241C61.8225 167.134 63.9253 166.581 66.2336 166.581C68.5103 166.581 70.4865 167.071 72.1624 168.051C73.8383 169.032 75.0873 170.265 75.9095 171.751V167.008H80.2731V193H75.9095V188.162C75.0557 189.68 73.7751 190.945 72.0676 191.957C70.3917 192.937 68.4312 193.427 66.1861 193.427C63.8778 193.427 61.7909 192.858 59.9253 191.719C58.0597 190.581 56.5893 188.984 55.5142 186.929C54.4391 184.874 53.9016 182.534 53.9016 179.909ZM75.9095 179.957C75.9095 177.996 75.5142 176.289 74.7237 174.834C73.9332 173.379 72.8581 172.273 71.4984 171.514C70.1703 170.723 68.7 170.328 67.0873 170.328C65.4747 170.328 64.0043 170.708 62.6763 171.466C61.3482 172.225 60.2889 173.332 59.4984 174.787C58.7079 176.241 58.3126 177.949 58.3126 179.909C58.3126 181.901 58.7079 183.64 59.4984 185.126C60.2889 186.581 61.3482 187.704 62.6763 188.494C64.0043 189.253 65.4747 189.632 67.0873 189.632C68.7 189.632 70.1703 189.253 71.4984 188.494C72.8581 187.704 73.9332 186.581 74.7237 185.126C75.5142 183.64 75.9095 181.917 75.9095 179.957ZM92.8714 171.229C93.6303 169.743 94.7054 168.589 96.0967 167.767C97.5196 166.945 99.243 166.534 101.267 166.534V170.992H100.128C95.2904 170.992 92.8714 173.617 92.8714 178.866V193H88.5552V167.008H92.8714V171.229ZM119.901 166.534C123.063 166.534 125.625 167.498 127.585 169.427C129.546 171.324 130.526 174.075 130.526 177.68V193H126.257V178.296C126.257 175.704 125.609 173.727 124.312 172.368C123.016 170.976 121.245 170.281 119 170.281C116.723 170.281 114.905 170.992 113.546 172.415C112.218 173.838 111.553 175.909 111.553 178.628V193H107.237V167.008H111.553V170.708C112.407 169.379 113.561 168.352 115.016 167.625C116.502 166.897 118.131 166.534 119.901 166.534ZM140.794 162.787C139.972 162.787 139.276 162.502 138.707 161.933C138.138 161.364 137.853 160.668 137.853 159.846C137.853 159.024 138.138 158.328 138.707 157.759C139.276 157.19 139.972 156.905 140.794 156.905C141.584 156.905 142.248 157.19 142.786 157.759C143.355 158.328 143.64 159.024 143.64 159.846C143.64 160.668 143.355 161.364 142.786 161.933C142.248 162.502 141.584 162.787 140.794 162.787ZM142.881 167.008V193H138.564V167.008H142.881ZM163.889 166.534C167.051 166.534 169.612 167.498 171.573 169.427C173.533 171.324 174.514 174.075 174.514 177.68V193H170.245V178.296C170.245 175.704 169.597 173.727 168.3 172.368C167.004 170.976 165.233 170.281 162.988 170.281C160.711 170.281 158.893 170.992 157.533 172.415C156.205 173.838 155.541 175.909 155.541 178.628V193H151.225V167.008H155.541V170.708C156.395 169.379 157.549 168.352 159.004 167.625C160.49 166.897 162.118 166.534 163.889 166.534ZM193.272 166.581C195.517 166.581 197.477 167.071 199.153 168.051C200.861 169.032 202.125 170.265 202.948 171.751V167.008H207.311V193.569C207.311 195.941 206.805 198.043 205.793 199.877C204.782 201.743 203.327 203.198 201.43 204.241C199.564 205.285 197.382 205.806 194.884 205.806C191.469 205.806 188.623 205 186.347 203.387C184.07 201.775 182.726 199.577 182.315 196.794H186.584C187.058 198.375 188.038 199.64 189.525 200.589C191.011 201.569 192.797 202.059 194.884 202.059C197.256 202.059 199.185 201.316 200.671 199.83C202.189 198.344 202.948 196.257 202.948 193.569V188.115C202.094 189.632 200.829 190.897 199.153 191.909C197.477 192.921 195.517 193.427 193.272 193.427C190.963 193.427 188.861 192.858 186.963 191.719C185.098 190.581 183.627 188.984 182.552 186.929C181.477 184.874 180.94 182.534 180.94 179.909C180.94 177.253 181.477 174.929 182.552 172.937C183.627 170.913 185.098 169.348 186.963 168.241C188.861 167.134 190.963 166.581 193.272 166.581ZM202.948 179.957C202.948 177.996 202.552 176.289 201.762 174.834C200.971 173.379 199.896 172.273 198.536 171.514C197.208 170.723 195.738 170.328 194.125 170.328C192.513 170.328 191.042 170.708 189.714 171.466C188.386 172.225 187.327 173.332 186.536 174.787C185.746 176.241 185.351 177.949 185.351 179.909C185.351 181.901 185.746 183.64 186.536 185.126C187.327 186.581 188.386 187.704 189.714 188.494C191.042 189.253 192.513 189.632 194.125 189.632C195.738 189.632 197.208 189.253 198.536 188.494C199.896 187.704 200.971 186.581 201.762 185.126C202.552 183.64 202.948 181.917 202.948 179.957ZM246.634 193L238.76 179.482H233.543V193H229.227V159.941H239.898C242.397 159.941 244.499 160.368 246.207 161.221C247.946 162.075 249.242 163.229 250.096 164.684C250.95 166.138 251.377 167.798 251.377 169.664C251.377 171.941 250.713 173.949 249.385 175.688C248.088 177.427 246.128 178.581 243.503 179.15L251.804 193H246.634ZM233.543 176.02H239.898C242.238 176.02 243.993 175.451 245.163 174.312C246.333 173.142 246.918 171.593 246.918 169.664C246.918 167.704 246.333 166.186 245.163 165.111C244.025 164.036 242.27 163.498 239.898 163.498H233.543V176.02ZM282.787 179.008C282.787 179.83 282.74 180.7 282.645 181.617H261.87C262.028 184.178 262.898 186.186 264.479 187.64C266.091 189.063 268.036 189.775 270.313 189.775C272.178 189.775 273.728 189.348 274.961 188.494C276.226 187.609 277.111 186.439 277.617 184.984H282.265C281.57 187.482 280.178 189.522 278.091 191.103C276.004 192.652 273.411 193.427 270.313 193.427C267.846 193.427 265.633 192.874 263.672 191.767C261.743 190.66 260.226 189.095 259.119 187.071C258.012 185.016 257.459 182.644 257.459 179.957C257.459 177.269 257.996 174.913 259.072 172.889C260.147 170.866 261.649 169.316 263.577 168.241C265.538 167.134 267.783 166.581 270.313 166.581C272.779 166.581 274.961 167.119 276.858 168.194C278.755 169.269 280.21 170.755 281.222 172.652C282.265 174.518 282.787 176.636 282.787 179.008ZM278.328 178.107C278.328 176.462 277.965 175.055 277.238 173.885C276.51 172.684 275.514 171.783 274.249 171.182C273.016 170.549 271.641 170.233 270.123 170.233C267.941 170.233 266.075 170.929 264.526 172.32C263.008 173.711 262.139 175.64 261.917 178.107H278.328ZM291.702 162.787C290.879 162.787 290.184 162.502 289.615 161.933C289.045 161.364 288.761 160.668 288.761 159.846C288.761 159.024 289.045 158.328 289.615 157.759C290.184 157.19 290.879 156.905 291.702 156.905C292.492 156.905 293.156 157.19 293.694 157.759C294.263 158.328 294.547 159.024 294.547 159.846C294.547 160.668 294.263 161.364 293.694 161.933C293.156 162.502 292.492 162.787 291.702 162.787ZM293.789 167.008V193H289.472V167.008H293.789ZM314.797 166.534C317.959 166.534 320.52 167.498 322.481 169.427C324.441 171.324 325.421 174.075 325.421 177.68V193H321.153V178.296C321.153 175.704 320.504 173.727 319.208 172.368C317.912 170.976 316.141 170.281 313.896 170.281C311.619 170.281 309.801 170.992 308.441 172.415C307.113 173.838 306.449 175.909 306.449 178.628V193H302.133V167.008H306.449V170.708C307.303 169.379 308.457 168.352 309.912 167.625C311.398 166.897 313.026 166.534 314.797 166.534ZM343.136 189.016L351.199 167.008H355.8L345.602 193H340.575L330.377 167.008H335.025L343.136 189.016ZM384.751 179.008C384.751 179.83 384.703 180.7 384.609 181.617H363.834C363.992 184.178 364.862 186.186 366.443 187.64C368.055 189.063 370 189.775 372.277 189.775C374.142 189.775 375.692 189.348 376.925 188.494C378.19 187.609 379.075 186.439 379.581 184.984H384.229C383.534 187.482 382.142 189.522 380.055 191.103C377.968 192.652 375.375 193.427 372.277 193.427C369.81 193.427 367.597 192.874 365.636 191.767C363.707 190.66 362.19 189.095 361.083 187.071C359.976 185.016 359.423 182.644 359.423 179.957C359.423 177.269 359.96 174.913 361.035 172.889C362.111 170.866 363.613 169.316 365.541 168.241C367.502 167.134 369.747 166.581 372.277 166.581C374.743 166.581 376.925 167.119 378.822 168.194C380.719 169.269 382.174 170.755 383.186 172.652C384.229 174.518 384.751 176.636 384.751 179.008ZM380.292 178.107C380.292 176.462 379.929 175.055 379.201 173.885C378.474 172.684 377.478 171.783 376.213 171.182C374.98 170.549 373.605 170.233 372.087 170.233C369.905 170.233 368.039 170.929 366.49 172.32C364.972 173.711 364.103 175.64 363.881 178.107H380.292ZM404.1 166.534C407.262 166.534 409.824 167.498 411.784 169.427C413.745 171.324 414.725 174.075 414.725 177.68V193H410.456V178.296C410.456 175.704 409.808 173.727 408.511 172.368C407.215 170.976 405.444 170.281 403.199 170.281C400.922 170.281 399.104 170.992 397.745 172.415C396.417 173.838 395.752 175.909 395.752 178.628V193H391.436V167.008H395.752V170.708C396.606 169.379 397.76 168.352 399.215 167.625C400.701 166.897 402.33 166.534 404.1 166.534ZM428.028 170.565V185.885C428.028 187.15 428.297 188.051 428.835 188.589C429.372 189.095 430.305 189.348 431.633 189.348H434.811V193H430.922C428.518 193 426.716 192.447 425.514 191.34C424.313 190.233 423.712 188.415 423.712 185.885V170.565H420.344V167.008H423.712V160.462H428.028V167.008H434.811V170.565H428.028ZM464.744 179.008C464.744 179.83 464.697 180.7 464.602 181.617H443.827C443.985 184.178 444.855 186.186 446.436 187.64C448.048 189.063 449.993 189.775 452.27 189.775C454.135 189.775 455.685 189.348 456.918 188.494C458.183 187.609 459.068 186.439 459.574 184.984H464.222C463.527 187.482 462.135 189.522 460.048 191.103C457.961 192.652 455.369 193.427 452.27 193.427C449.803 193.427 447.59 192.874 445.629 191.767C443.701 190.66 442.183 189.095 441.076 187.071C439.969 185.016 439.416 182.644 439.416 179.957C439.416 177.269 439.954 174.913 441.029 172.889C442.104 170.866 443.606 169.316 445.535 168.241C447.495 167.134 449.74 166.581 452.27 166.581C454.736 166.581 456.918 167.119 458.815 168.194C460.712 169.269 462.167 170.755 463.179 172.652C464.222 174.518 464.744 176.636 464.744 179.008ZM460.286 178.107C460.286 176.462 459.922 175.055 459.195 173.885C458.467 172.684 457.471 171.783 456.207 171.182C454.973 170.549 453.598 170.233 452.08 170.233C449.898 170.233 448.033 170.929 446.483 172.32C444.965 173.711 444.096 175.64 443.875 178.107H460.286ZM469.817 179.909C469.817 177.253 470.354 174.929 471.429 172.937C472.505 170.913 473.975 169.348 475.841 168.241C477.738 167.134 479.856 166.581 482.196 166.581C484.22 166.581 486.101 167.055 487.841 168.004C489.58 168.921 490.908 170.138 491.825 171.656V157.901H496.188V193H491.825V188.115C490.971 189.664 489.706 190.945 488.03 191.957C486.354 192.937 484.394 193.427 482.149 193.427C479.841 193.427 477.738 192.858 475.841 191.719C473.975 190.581 472.505 188.984 471.429 186.929C470.354 184.874 469.817 182.534 469.817 179.909ZM491.825 179.957C491.825 177.996 491.429 176.289 490.639 174.834C489.848 173.379 488.773 172.273 487.414 171.514C486.086 170.723 484.615 170.328 483.003 170.328C481.39 170.328 479.92 170.708 478.592 171.466C477.263 172.225 476.204 173.332 475.414 174.787C474.623 176.241 474.228 177.949 474.228 179.909C474.228 181.901 474.623 183.64 475.414 185.126C476.204 186.581 477.263 187.704 478.592 188.494C479.92 189.253 481.39 189.632 483.003 189.632C484.615 189.632 486.086 189.253 487.414 188.494C488.773 187.704 489.848 186.581 490.639 185.126C491.429 183.64 491.825 181.917 491.825 179.957Z" fill="#1F4DE5"/>
</svg>
