<svg width="1619" height="1104" viewBox="0 0 1619 1104" fill="none" xmlns="http://www.w3.org/2000/svg">
<rect width="1539" height="1024" transform="translate(40 40)" fill="#EFF4FF"/>
<path d="M583.866 542.913H607.771V557H565.617V482.083H583.866V542.913ZM673.598 526.265C673.598 527.972 673.491 529.751 673.277 531.601H631.977C632.262 535.3 633.436 538.146 635.499 540.138C637.633 542.059 640.23 543.02 643.289 543.02C647.843 543.02 651.009 541.099 652.787 537.257H672.21C671.214 541.17 669.4 544.692 666.768 547.822C664.206 550.953 660.969 553.407 657.056 555.186C653.143 556.964 648.768 557.854 643.93 557.854C638.096 557.854 632.902 556.609 628.349 554.119C623.795 551.628 620.238 548.071 617.677 543.447C615.115 538.822 613.835 533.415 613.835 527.225C613.835 521.036 615.08 515.628 617.57 511.004C620.131 506.379 623.688 502.822 628.242 500.332C632.795 497.842 638.024 496.597 643.93 496.597C649.692 496.597 654.815 497.806 659.297 500.225C663.779 502.644 667.266 506.095 669.756 510.577C672.317 515.059 673.598 520.289 673.598 526.265ZM654.922 521.462C654.922 518.332 653.854 515.842 651.72 513.992C649.586 512.142 646.918 511.217 643.716 511.217C640.657 511.217 638.06 512.107 635.926 513.885C633.862 515.664 632.582 518.19 632.084 521.462H654.922ZM680.585 527.119C680.585 521 681.723 515.628 684 511.004C686.347 506.379 689.513 502.822 693.498 500.332C697.482 497.842 701.928 496.597 706.837 496.597C711.035 496.597 714.699 497.451 717.83 499.158C721.031 500.866 723.486 503.107 725.193 505.881V497.451H743.442V557H725.193V548.569C723.415 551.344 720.924 553.585 717.723 555.292C714.592 557 710.928 557.854 706.731 557.854C701.893 557.854 697.482 556.609 693.498 554.119C689.513 551.557 686.347 547.964 684 543.34C681.723 538.644 680.585 533.237 680.585 527.119ZM725.193 527.225C725.193 522.672 723.913 519.079 721.351 516.447C718.861 513.814 715.802 512.498 712.173 512.498C708.545 512.498 705.45 513.814 702.889 516.447C700.399 519.008 699.154 522.565 699.154 527.119C699.154 531.672 700.399 535.3 702.889 538.004C705.45 540.636 708.545 541.953 712.173 541.953C715.802 541.953 718.861 540.636 721.351 538.004C723.913 535.372 725.193 531.779 725.193 527.225ZM775.882 507.375C778.016 504.103 780.684 501.541 783.886 499.692C787.087 497.771 790.645 496.81 794.558 496.81V516.126H789.542C784.988 516.126 781.573 517.123 779.297 519.115C777.02 521.036 775.882 524.451 775.882 529.36V557H757.633V497.451H775.882V507.375ZM840.553 496.81C847.525 496.81 853.075 499.087 857.201 503.64C861.399 508.123 863.498 514.312 863.498 522.209V557H845.355V524.664C845.355 520.68 844.324 517.585 842.261 515.379C840.197 513.174 837.423 512.071 833.936 512.071C830.45 512.071 827.676 513.174 825.612 515.379C823.549 517.585 822.517 520.68 822.517 524.664V557H804.268V497.451H822.517V505.348C824.367 502.715 826.857 500.652 829.988 499.158C833.118 497.593 836.64 496.81 840.553 496.81ZM895.416 542.913H919.321V557H877.167V482.083H895.416V542.913ZM925.385 527.119C925.385 521 926.524 515.628 928.8 511.004C931.148 506.379 934.314 502.822 938.298 500.332C942.282 497.842 946.729 496.597 951.638 496.597C955.836 496.597 959.5 497.451 962.63 499.158C965.832 500.866 968.286 503.107 969.994 505.881V497.451H988.243V557H969.994V548.569C968.215 551.344 965.725 553.585 962.524 555.292C959.393 557 955.729 557.854 951.531 557.854C946.694 557.854 942.282 556.609 938.298 554.119C934.314 551.557 931.148 547.964 928.8 543.34C926.524 538.644 925.385 533.237 925.385 527.119ZM969.994 527.225C969.994 522.672 968.713 519.079 966.152 516.447C963.662 513.814 960.603 512.498 956.974 512.498C953.346 512.498 950.251 513.814 947.69 516.447C945.199 519.008 943.954 522.565 943.954 527.119C943.954 531.672 945.199 535.3 947.69 538.004C950.251 540.636 953.346 541.953 956.974 541.953C960.603 541.953 963.662 540.636 966.152 538.004C968.713 535.372 969.994 531.779 969.994 527.225ZM1020.68 505.881C1022.39 503.107 1024.84 500.866 1028.05 499.158C1031.25 497.451 1034.91 496.597 1039.04 496.597C1043.95 496.597 1048.39 497.842 1052.38 500.332C1056.36 502.822 1059.49 506.379 1061.77 511.004C1064.12 515.628 1065.29 521 1065.29 527.119C1065.29 533.237 1064.12 538.644 1061.77 543.34C1059.49 547.964 1056.36 551.557 1052.38 554.119C1048.39 556.609 1043.95 557.854 1039.04 557.854C1034.84 557.854 1031.18 557.036 1028.05 555.399C1024.92 553.692 1022.46 551.451 1020.68 548.676V557H1002.43V478.028H1020.68V505.881ZM1046.72 527.119C1046.72 522.565 1045.44 519.008 1042.88 516.447C1040.39 513.814 1037.3 512.498 1033.6 512.498C1029.97 512.498 1026.87 513.814 1024.31 516.447C1021.82 519.079 1020.58 522.672 1020.58 527.225C1020.58 531.779 1021.82 535.372 1024.31 538.004C1026.87 540.636 1029.97 541.953 1033.6 541.953C1037.22 541.953 1040.32 540.636 1042.88 538.004C1045.44 535.3 1046.72 531.672 1046.72 527.119ZM1084.39 557.854C1081.19 557.854 1078.56 556.929 1076.49 555.079C1074.5 553.158 1073.51 550.81 1073.51 548.036C1073.51 545.19 1074.5 542.806 1076.49 540.885C1078.56 538.964 1081.19 538.004 1084.39 538.004C1087.52 538.004 1090.08 538.964 1092.07 540.885C1094.14 542.806 1095.17 545.19 1095.17 548.036C1095.17 550.81 1094.14 553.158 1092.07 555.079C1090.08 556.929 1087.52 557.854 1084.39 557.854Z" fill="#1F4DE5"/>
<path d="M566.968 637.49H578.542V641H562.652V607.941H566.968V637.49ZM607.829 627.008C607.829 627.83 607.781 628.7 607.687 629.617H586.912C587.07 632.178 587.939 634.186 589.521 635.64C591.133 637.063 593.078 637.775 595.354 637.775C597.22 637.775 598.77 637.348 600.003 636.494C601.268 635.609 602.153 634.439 602.659 632.984H607.307C606.611 635.482 605.22 637.522 603.133 639.103C601.046 640.652 598.453 641.427 595.354 641.427C592.888 641.427 590.675 640.874 588.714 639.767C586.785 638.66 585.268 637.095 584.161 635.071C583.054 633.016 582.501 630.644 582.501 627.957C582.501 625.269 583.038 622.913 584.113 620.889C585.188 618.866 586.69 617.316 588.619 616.241C590.58 615.134 592.825 614.581 595.354 614.581C597.821 614.581 600.003 615.119 601.9 616.194C603.797 617.269 605.252 618.755 606.264 620.652C607.307 622.518 607.829 624.636 607.829 627.008ZM603.37 626.107C603.37 624.462 603.007 623.055 602.279 621.885C601.552 620.684 600.556 619.783 599.291 619.182C598.058 618.549 596.683 618.233 595.165 618.233C592.983 618.233 591.117 618.929 589.568 620.32C588.05 621.711 587.181 623.64 586.959 626.107H603.37ZM612.902 627.909C612.902 625.253 613.439 622.929 614.514 620.937C615.589 618.913 617.06 617.348 618.925 616.241C620.823 615.134 622.925 614.581 625.234 614.581C627.51 614.581 629.487 615.071 631.162 616.051C632.838 617.032 634.087 618.265 634.909 619.751V615.008H639.273V641H634.909V636.162C634.056 637.68 632.775 638.945 631.068 639.957C629.392 640.937 627.431 641.427 625.186 641.427C622.878 641.427 620.791 640.858 618.925 639.719C617.06 638.581 615.589 636.984 614.514 634.929C613.439 632.874 612.902 630.534 612.902 627.909ZM634.909 627.957C634.909 625.996 634.514 624.289 633.724 622.834C632.933 621.379 631.858 620.273 630.498 619.514C629.17 618.723 627.7 618.328 626.087 618.328C624.475 618.328 623.004 618.708 621.676 619.466C620.348 620.225 619.289 621.332 618.498 622.787C617.708 624.241 617.313 625.949 617.313 627.909C617.313 629.901 617.708 631.64 618.498 633.126C619.289 634.581 620.348 635.704 621.676 636.494C623.004 637.253 624.475 637.632 626.087 637.632C627.7 637.632 629.17 637.253 630.498 636.494C631.858 635.704 632.933 634.581 633.724 633.126C634.514 631.64 634.909 629.917 634.909 627.957ZM651.871 619.229C652.63 617.743 653.705 616.589 655.097 615.767C656.52 614.945 658.243 614.534 660.267 614.534V618.992H659.128C654.29 618.992 651.871 621.617 651.871 626.866V641H647.555V615.008H651.871V619.229ZM678.901 614.534C682.063 614.534 684.625 615.498 686.585 617.427C688.546 619.324 689.526 622.075 689.526 625.68V641H685.257V626.296C685.257 623.704 684.609 621.727 683.312 620.368C682.016 618.976 680.245 618.281 678 618.281C675.723 618.281 673.905 618.992 672.546 620.415C671.218 621.838 670.553 623.909 670.553 626.628V641H666.237V615.008H670.553V618.708C671.407 617.379 672.561 616.352 674.016 615.625C675.502 614.897 677.131 614.534 678.901 614.534ZM699.794 610.787C698.972 610.787 698.276 610.502 697.707 609.933C697.138 609.364 696.853 608.668 696.853 607.846C696.853 607.024 697.138 606.328 697.707 605.759C698.276 605.19 698.972 604.905 699.794 604.905C700.584 604.905 701.248 605.19 701.786 605.759C702.355 606.328 702.64 607.024 702.64 607.846C702.64 608.668 702.355 609.364 701.786 609.933C701.248 610.502 700.584 610.787 699.794 610.787ZM701.881 615.008V641H697.564V615.008H701.881ZM722.889 614.534C726.051 614.534 728.612 615.498 730.573 617.427C732.533 619.324 733.514 622.075 733.514 625.68V641H729.245V626.296C729.245 623.704 728.597 621.727 727.3 620.368C726.004 618.976 724.233 618.281 721.988 618.281C719.711 618.281 717.893 618.992 716.533 620.415C715.205 621.838 714.541 623.909 714.541 626.628V641H710.225V615.008H714.541V618.708C715.395 617.379 716.549 616.352 718.004 615.625C719.49 614.897 721.118 614.534 722.889 614.534ZM752.272 614.581C754.517 614.581 756.477 615.071 758.153 616.051C759.861 617.032 761.125 618.265 761.948 619.751V615.008H766.311V641.569C766.311 643.941 765.805 646.043 764.793 647.877C763.782 649.743 762.327 651.198 760.43 652.241C758.564 653.285 756.382 653.806 753.884 653.806C750.469 653.806 747.623 653 745.347 651.387C743.07 649.775 741.726 647.577 741.315 644.794H745.584C746.058 646.375 747.038 647.64 748.525 648.589C750.011 649.569 751.797 650.059 753.884 650.059C756.256 650.059 758.185 649.316 759.671 647.83C761.189 646.344 761.948 644.257 761.948 641.569V636.115C761.094 637.632 759.829 638.897 758.153 639.909C756.477 640.921 754.517 641.427 752.272 641.427C749.963 641.427 747.861 640.858 745.963 639.719C744.098 638.581 742.627 636.984 741.552 634.929C740.477 632.874 739.94 630.534 739.94 627.909C739.94 625.253 740.477 622.929 741.552 620.937C742.627 618.913 744.098 617.348 745.963 616.241C747.861 615.134 749.963 614.581 752.272 614.581ZM761.948 627.957C761.948 625.996 761.552 624.289 760.762 622.834C759.971 621.379 758.896 620.273 757.536 619.514C756.208 618.723 754.738 618.328 753.125 618.328C751.513 618.328 750.042 618.708 748.714 619.466C747.386 620.225 746.327 621.332 745.536 622.787C744.746 624.241 744.351 625.949 744.351 627.909C744.351 629.901 744.746 631.64 745.536 633.126C746.327 634.581 747.386 635.704 748.714 636.494C750.042 637.253 751.513 637.632 753.125 637.632C754.738 637.632 756.208 637.253 757.536 636.494C758.896 635.704 759.971 634.581 760.762 633.126C761.552 631.64 761.948 629.917 761.948 627.957ZM805.634 641L797.76 627.482H792.543V641H788.227V607.941H798.898C801.397 607.941 803.499 608.368 805.207 609.221C806.946 610.075 808.242 611.229 809.096 612.684C809.95 614.138 810.377 615.798 810.377 617.664C810.377 619.941 809.713 621.949 808.385 623.688C807.088 625.427 805.128 626.581 802.503 627.15L810.804 641H805.634ZM792.543 624.02H798.898C801.238 624.02 802.993 623.451 804.163 622.312C805.333 621.142 805.918 619.593 805.918 617.664C805.918 615.704 805.333 614.186 804.163 613.111C803.025 612.036 801.27 611.498 798.898 611.498H792.543V624.02ZM841.787 627.008C841.787 627.83 841.74 628.7 841.645 629.617H820.87C821.028 632.178 821.898 634.186 823.479 635.64C825.091 637.063 827.036 637.775 829.313 637.775C831.178 637.775 832.728 637.348 833.961 636.494C835.226 635.609 836.111 634.439 836.617 632.984H841.265C840.57 635.482 839.178 637.522 837.091 639.103C835.004 640.652 832.411 641.427 829.313 641.427C826.846 641.427 824.633 640.874 822.672 639.767C820.743 638.66 819.226 637.095 818.119 635.071C817.012 633.016 816.459 630.644 816.459 627.957C816.459 625.269 816.996 622.913 818.072 620.889C819.147 618.866 820.649 617.316 822.577 616.241C824.538 615.134 826.783 614.581 829.313 614.581C831.779 614.581 833.961 615.119 835.858 616.194C837.755 617.269 839.21 618.755 840.222 620.652C841.265 622.518 841.787 624.636 841.787 627.008ZM837.328 626.107C837.328 624.462 836.965 623.055 836.238 621.885C835.51 620.684 834.514 619.783 833.249 619.182C832.016 618.549 830.641 618.233 829.123 618.233C826.941 618.233 825.075 618.929 823.526 620.32C822.008 621.711 821.139 623.64 820.917 626.107H837.328ZM850.702 610.787C849.879 610.787 849.184 610.502 848.615 609.933C848.045 609.364 847.761 608.668 847.761 607.846C847.761 607.024 848.045 606.328 848.615 605.759C849.184 605.19 849.879 604.905 850.702 604.905C851.492 604.905 852.156 605.19 852.694 605.759C853.263 606.328 853.547 607.024 853.547 607.846C853.547 608.668 853.263 609.364 852.694 609.933C852.156 610.502 851.492 610.787 850.702 610.787ZM852.789 615.008V641H848.472V615.008H852.789ZM873.797 614.534C876.959 614.534 879.52 615.498 881.481 617.427C883.441 619.324 884.421 622.075 884.421 625.68V641H880.153V626.296C880.153 623.704 879.504 621.727 878.208 620.368C876.912 618.976 875.141 618.281 872.896 618.281C870.619 618.281 868.801 618.992 867.441 620.415C866.113 621.838 865.449 623.909 865.449 626.628V641H861.133V615.008H865.449V618.708C866.303 617.379 867.457 616.352 868.912 615.625C870.398 614.897 872.026 614.534 873.797 614.534ZM902.136 637.016L910.199 615.008H914.8L904.602 641H899.575L889.377 615.008H894.025L902.136 637.016ZM943.751 627.008C943.751 627.83 943.703 628.7 943.609 629.617H922.834C922.992 632.178 923.862 634.186 925.443 635.64C927.055 637.063 929 637.775 931.277 637.775C933.142 637.775 934.692 637.348 935.925 636.494C937.19 635.609 938.075 634.439 938.581 632.984H943.229C942.534 635.482 941.142 637.522 939.055 639.103C936.968 640.652 934.375 641.427 931.277 641.427C928.81 641.427 926.597 640.874 924.636 639.767C922.707 638.66 921.19 637.095 920.083 635.071C918.976 633.016 918.423 630.644 918.423 627.957C918.423 625.269 918.96 622.913 920.035 620.889C921.111 618.866 922.613 617.316 924.541 616.241C926.502 615.134 928.747 614.581 931.277 614.581C933.743 614.581 935.925 615.119 937.822 616.194C939.719 617.269 941.174 618.755 942.186 620.652C943.229 622.518 943.751 624.636 943.751 627.008ZM939.292 626.107C939.292 624.462 938.929 623.055 938.201 621.885C937.474 620.684 936.478 619.783 935.213 619.182C933.98 618.549 932.605 618.233 931.087 618.233C928.905 618.233 927.039 618.929 925.49 620.32C923.972 621.711 923.103 623.64 922.881 626.107H939.292ZM963.1 614.534C966.262 614.534 968.824 615.498 970.784 617.427C972.745 619.324 973.725 622.075 973.725 625.68V641H969.456V626.296C969.456 623.704 968.808 621.727 967.511 620.368C966.215 618.976 964.444 618.281 962.199 618.281C959.922 618.281 958.104 618.992 956.745 620.415C955.417 621.838 954.752 623.909 954.752 626.628V641H950.436V615.008H954.752V618.708C955.606 617.379 956.76 616.352 958.215 615.625C959.701 614.897 961.33 614.534 963.1 614.534ZM987.028 618.565V633.885C987.028 635.15 987.297 636.051 987.835 636.589C988.372 637.095 989.305 637.348 990.633 637.348H993.811V641H989.922C987.518 641 985.716 640.447 984.514 639.34C983.313 638.233 982.712 636.415 982.712 633.885V618.565H979.344V615.008H982.712V608.462H987.028V615.008H993.811V618.565H987.028ZM1023.74 627.008C1023.74 627.83 1023.7 628.7 1023.6 629.617H1002.83C1002.99 632.178 1003.85 634.186 1005.44 635.64C1007.05 637.063 1008.99 637.775 1011.27 637.775C1013.14 637.775 1014.68 637.348 1015.92 636.494C1017.18 635.609 1018.07 634.439 1018.57 632.984H1023.22C1022.53 635.482 1021.14 637.522 1019.05 639.103C1016.96 640.652 1014.37 641.427 1011.27 641.427C1008.8 641.427 1006.59 640.874 1004.63 639.767C1002.7 638.66 1001.18 637.095 1000.08 635.071C998.969 633.016 998.416 630.644 998.416 627.957C998.416 625.269 998.954 622.913 1000.03 620.889C1001.1 618.866 1002.61 617.316 1004.53 616.241C1006.5 615.134 1008.74 614.581 1011.27 614.581C1013.74 614.581 1015.92 615.119 1017.82 616.194C1019.71 617.269 1021.17 618.755 1022.18 620.652C1023.22 622.518 1023.74 624.636 1023.74 627.008ZM1019.29 626.107C1019.29 624.462 1018.92 623.055 1018.19 621.885C1017.47 620.684 1016.47 619.783 1015.21 619.182C1013.97 618.549 1012.6 618.233 1011.08 618.233C1008.9 618.233 1007.03 618.929 1005.48 620.32C1003.97 621.711 1003.1 623.64 1002.87 626.107H1019.29ZM1028.82 627.909C1028.82 625.253 1029.35 622.929 1030.43 620.937C1031.5 618.913 1032.97 617.348 1034.84 616.241C1036.74 615.134 1038.86 614.581 1041.2 614.581C1043.22 614.581 1045.1 615.055 1046.84 616.004C1048.58 616.921 1049.91 618.138 1050.82 619.656V605.901H1055.19V641H1050.82V636.115C1049.97 637.664 1048.71 638.945 1047.03 639.957C1045.35 640.937 1043.39 641.427 1041.15 641.427C1038.84 641.427 1036.74 640.858 1034.84 639.719C1032.97 638.581 1031.5 636.984 1030.43 634.929C1029.35 632.874 1028.82 630.534 1028.82 627.909ZM1050.82 627.957C1050.82 625.996 1050.43 624.289 1049.64 622.834C1048.85 621.379 1047.77 620.273 1046.41 619.514C1045.09 618.723 1043.62 618.328 1042 618.328C1040.39 618.328 1038.92 618.708 1037.59 619.466C1036.26 620.225 1035.2 621.332 1034.41 622.787C1033.62 624.241 1033.23 625.949 1033.23 627.909C1033.23 629.901 1033.62 631.64 1034.41 633.126C1035.2 634.581 1036.26 635.704 1037.59 636.494C1038.92 637.253 1040.39 637.632 1042 637.632C1043.62 637.632 1045.09 637.253 1046.41 636.494C1047.77 635.704 1048.85 634.581 1049.64 633.126C1050.43 631.64 1050.82 629.917 1050.82 627.957Z" fill="#1F4DE5"/>
<rect x="40" y="4" width="38.0156" height="30" rx="3" fill="#EFF4FF"/>
<rect x="40.5" y="4.5" width="37.0156" height="29" rx="2.5" stroke="black" stroke-opacity="0.2"/>
<path d="M46.9688 22V14H47.9375V21.1406H51.6563V22H46.9688ZM55.4688 22.125C54.9271 22.125 54.4518 21.9961 54.043 21.7383C53.6367 21.4805 53.319 21.1198 53.0898 20.6562C52.8633 20.1927 52.75 19.651 52.75 19.0312C52.75 18.4062 52.8633 17.8607 53.0898 17.3945C53.319 16.9284 53.6367 16.5664 54.043 16.3086C54.4518 16.0508 54.9271 15.9219 55.4688 15.9219C56.0104 15.9219 56.4844 16.0508 56.8906 16.3086C57.2995 16.5664 57.6172 16.9284 57.8438 17.3945C58.0729 17.8607 58.1875 18.4062 58.1875 19.0312C58.1875 19.651 58.0729 20.1927 57.8438 20.6562C57.6172 21.1198 57.2995 21.4805 56.8906 21.7383C56.4844 21.9961 56.0104 22.125 55.4688 22.125ZM55.4688 21.2969C55.8802 21.2969 56.2187 21.1914 56.4844 20.9805C56.75 20.7695 56.9466 20.4922 57.0742 20.1484C57.2018 19.8047 57.2656 19.4323 57.2656 19.0312C57.2656 18.6302 57.2018 18.2565 57.0742 17.9102C56.9466 17.5638 56.75 17.2839 56.4844 17.0703C56.2187 16.8568 55.8802 16.75 55.4688 16.75C55.0573 16.75 54.7188 16.8568 54.4531 17.0703C54.1875 17.2839 53.9909 17.5638 53.8633 17.9102C53.7357 18.2565 53.6719 18.6302 53.6719 19.0312C53.6719 19.4323 53.7357 19.8047 53.8633 20.1484C53.9909 20.4922 54.1875 20.7695 54.4531 20.9805C54.7188 21.1914 55.0573 21.2969 55.4688 21.2969ZM62.0166 24.375C61.5713 24.375 61.1885 24.3177 60.8682 24.2031C60.5479 24.0911 60.2809 23.9427 60.0674 23.7578C59.8564 23.5755 59.6885 23.3802 59.5635 23.1719L60.2979 22.6563C60.3812 22.7656 60.4867 22.8906 60.6143 23.0312C60.7419 23.1745 60.9163 23.2982 61.1377 23.4023C61.3617 23.5091 61.6546 23.5625 62.0166 23.5625C62.501 23.5625 62.9007 23.4453 63.2158 23.2109C63.5309 22.9766 63.6885 22.6094 63.6885 22.1094V20.8906H63.6104C63.5426 21 63.4463 21.1354 63.3213 21.2969C63.1989 21.4557 63.0218 21.5977 62.79 21.7227C62.5609 21.8451 62.251 21.9062 61.8604 21.9062C61.376 21.9062 60.9411 21.7917 60.5557 21.5625C60.1729 21.3333 59.8695 21 59.6455 20.5625C59.4242 20.125 59.3135 19.5937 59.3135 18.9687C59.3135 18.3542 59.4215 17.819 59.6377 17.3633C59.8538 16.9049 60.1546 16.5508 60.54 16.3008C60.9255 16.0482 61.3708 15.9219 61.876 15.9219C62.2666 15.9219 62.5765 15.987 62.8057 16.1172C63.0374 16.2448 63.2145 16.3906 63.3369 16.5547C63.4619 16.7161 63.5583 16.849 63.626 16.9531H63.7197V16H64.6104V22.1719C64.6104 22.6875 64.4932 23.1068 64.2588 23.4297C64.027 23.7552 63.7145 23.9935 63.3213 24.1445C62.9307 24.2982 62.4958 24.375 62.0166 24.375ZM61.9854 21.0781C62.3551 21.0781 62.6676 20.9935 62.9229 20.8242C63.1781 20.6549 63.3721 20.4115 63.5049 20.0938C63.6377 19.776 63.7041 19.3958 63.7041 18.9531C63.7041 18.5208 63.639 18.1393 63.5088 17.8086C63.3786 17.4779 63.1859 17.2187 62.9307 17.0312C62.6755 16.8437 62.3604 16.75 61.9854 16.75C61.5947 16.75 61.2692 16.849 61.0088 17.0469C60.751 17.2448 60.557 17.5104 60.4268 17.8438C60.2992 18.1771 60.2354 18.5469 60.2354 18.9531C60.2354 19.3698 60.3005 19.7383 60.4307 20.0586C60.5635 20.3763 60.7588 20.6263 61.0166 20.8086C61.277 20.9883 61.5999 21.0781 61.9854 21.0781ZM68.7354 22.125C68.1937 22.125 67.7184 21.9961 67.3096 21.7383C66.9033 21.4805 66.5856 21.1198 66.3564 20.6562C66.1299 20.1927 66.0166 19.651 66.0166 19.0312C66.0166 18.4062 66.1299 17.8607 66.3564 17.3945C66.5856 16.9284 66.9033 16.5664 67.3096 16.3086C67.7184 16.0508 68.1937 15.9219 68.7354 15.9219C69.277 15.9219 69.751 16.0508 70.1572 16.3086C70.5661 16.5664 70.8838 16.9284 71.1104 17.3945C71.3395 17.8607 71.4541 18.4062 71.4541 19.0312C71.4541 19.651 71.3395 20.1927 71.1104 20.6562C70.8838 21.1198 70.5661 21.4805 70.1572 21.7383C69.751 21.9961 69.277 22.125 68.7354 22.125ZM68.7354 21.2969C69.1468 21.2969 69.4854 21.1914 69.751 20.9805C70.0166 20.7695 70.2132 20.4922 70.3408 20.1484C70.4684 19.8047 70.5322 19.4323 70.5322 19.0312C70.5322 18.6302 70.4684 18.2565 70.3408 17.9102C70.2132 17.5638 70.0166 17.2839 69.751 17.0703C69.4854 16.8568 69.1468 16.75 68.7354 16.75C68.3239 16.75 67.9854 16.8568 67.7197 17.0703C67.4541 17.2839 67.2575 17.5638 67.1299 17.9102C67.0023 18.2565 66.9385 18.6302 66.9385 19.0312C66.9385 19.4323 67.0023 19.8047 67.1299 20.1484C67.2575 20.4922 67.4541 20.7695 67.7197 20.9805C67.9854 21.1914 68.3239 21.2969 68.7354 21.2969Z" fill="black"/>
</svg>
