<svg width="541" height="144" viewBox="0 0 541 144" fill="none" xmlns="http://www.w3.org/2000/svg">
<path d="M24.8656 94.913H48.7708V109H6.6166V34.083H24.8656V94.913ZM114.598 78.2648C114.598 79.9723 114.491 81.751 114.277 83.6008H72.977C73.2616 87.3004 74.4355 90.1462 76.4988 92.1383C78.6332 94.0593 81.23 95.0198 84.2893 95.0198C88.8426 95.0198 92.0086 93.0988 93.7873 89.2569H113.21C112.214 93.17 110.4 96.6917 107.768 99.8221C105.206 102.953 101.969 105.407 98.0561 107.186C94.143 108.964 89.7675 109.854 84.9296 109.854C79.0956 109.854 73.9019 108.609 69.3486 106.119C64.7952 103.628 61.2379 100.071 58.6766 95.4466C56.1154 90.8221 54.8347 85.415 54.8347 79.2253C54.8347 73.0356 56.0798 67.6285 58.5699 63.0039C61.1312 58.3794 64.6885 54.8221 69.2418 52.332C73.7952 49.8419 79.0245 48.5968 84.9296 48.5968C90.6924 48.5968 95.815 49.8063 100.297 52.2253C104.779 54.6443 108.266 58.0949 110.756 62.5771C113.317 67.0593 114.598 72.2885 114.598 78.2648ZM95.9217 73.4625C95.9217 70.332 94.8545 67.8419 92.7201 65.9921C90.5857 64.1423 87.9177 63.2174 84.7162 63.2174C81.6569 63.2174 79.06 64.1067 76.9256 65.8854C74.8624 67.664 73.5818 70.1897 73.0837 73.4625H95.9217ZM121.585 79.1186C121.585 73 122.723 67.6285 125 63.0039C127.347 58.3794 130.513 54.8221 134.498 52.332C138.482 49.8419 142.928 48.5968 147.837 48.5968C152.035 48.5968 155.699 49.4506 158.83 51.1581C162.031 52.8656 164.486 55.1067 166.193 57.8814V49.4506H184.442V109H166.193V100.569C164.415 103.344 161.924 105.585 158.723 107.292C155.592 109 151.928 109.854 147.731 109.854C142.893 109.854 138.482 108.609 134.498 106.119C130.513 103.557 127.347 99.9644 125 95.3399C122.723 90.6443 121.585 85.2372 121.585 79.1186ZM166.193 79.2253C166.193 74.6719 164.913 71.079 162.351 68.4466C159.861 65.8142 156.802 64.498 153.173 64.498C149.545 64.498 146.45 65.8142 143.889 68.4466C141.399 71.0079 140.154 74.5652 140.154 79.1186C140.154 83.6719 141.399 87.3004 143.889 90.004C146.45 92.6364 149.545 93.9526 153.173 93.9526C156.802 93.9526 159.861 92.6364 162.351 90.004C164.913 87.3715 166.193 83.7787 166.193 79.2253ZM216.882 59.3755C219.016 56.1028 221.684 53.5415 224.886 51.6917C228.087 49.7708 231.645 48.8103 235.558 48.8103V68.1265H230.542C225.988 68.1265 222.573 69.1225 220.297 71.1146C218.02 73.0356 216.882 76.4506 216.882 81.3597V109H198.633V49.4506H216.882V59.3755ZM281.553 48.8103C288.525 48.8103 294.075 51.087 298.201 55.6403C302.399 60.1225 304.498 66.3123 304.498 74.2095V109H286.355V76.664C286.355 72.6798 285.324 69.585 283.261 67.3794C281.197 65.1739 278.423 64.0711 274.936 64.0711C271.45 64.0711 268.676 65.1739 266.612 67.3794C264.549 69.585 263.517 72.6798 263.517 76.664V109H245.268V49.4506H263.517V57.3478C265.367 54.7154 267.857 52.6522 270.988 51.1581C274.118 49.5929 277.64 48.8103 281.553 48.8103ZM336.416 94.913H360.321V109H318.167V34.083H336.416V94.913ZM366.385 79.1186C366.385 73 367.524 67.6285 369.8 63.0039C372.148 58.3794 375.314 54.8221 379.298 52.332C383.282 49.8419 387.729 48.5968 392.638 48.5968C396.836 48.5968 400.5 49.4506 403.63 51.1581C406.832 52.8656 409.286 55.1067 410.994 57.8814V49.4506H429.243V109H410.994V100.569C409.215 103.344 406.725 105.585 403.524 107.292C400.393 109 396.729 109.854 392.531 109.854C387.694 109.854 383.282 108.609 379.298 106.119C375.314 103.557 372.148 99.9644 369.8 95.3399C367.524 90.6443 366.385 85.2372 366.385 79.1186ZM410.994 79.2253C410.994 74.6719 409.713 71.079 407.152 68.4466C404.662 65.8142 401.603 64.498 397.974 64.498C394.346 64.498 391.251 65.8142 388.69 68.4466C386.199 71.0079 384.954 74.5652 384.954 79.1186C384.954 83.6719 386.199 87.3004 388.69 90.004C391.251 92.6364 394.346 93.9526 397.974 93.9526C401.603 93.9526 404.662 92.6364 407.152 90.004C409.713 87.3715 410.994 83.7787 410.994 79.2253ZM461.682 57.8814C463.39 55.1067 465.844 52.8656 469.046 51.1581C472.248 49.4506 475.912 48.5968 480.038 48.5968C484.947 48.5968 489.394 49.8419 493.378 52.332C497.362 54.8221 500.493 58.3794 502.769 63.0039C505.117 67.6285 506.291 73 506.291 79.1186C506.291 85.2372 505.117 90.6443 502.769 95.3399C500.493 99.9644 497.362 103.557 493.378 106.119C489.394 108.609 484.947 109.854 480.038 109.854C475.841 109.854 472.176 109.036 469.046 107.399C465.916 105.692 463.461 103.451 461.682 100.676V109H443.433V30.0277H461.682V57.8814ZM487.722 79.1186C487.722 74.5652 486.441 71.0079 483.88 68.4466C481.39 65.8142 478.295 64.498 474.595 64.498C470.967 64.498 467.872 65.8142 465.311 68.4466C462.821 71.079 461.576 74.6719 461.576 79.2253C461.576 83.7787 462.821 87.3715 465.311 90.004C467.872 92.6364 470.967 93.9526 474.595 93.9526C478.224 93.9526 481.319 92.6364 483.88 90.004C486.441 87.3004 487.722 83.6719 487.722 79.1186ZM525.391 109.854C522.189 109.854 519.557 108.929 517.493 107.079C515.501 105.158 514.505 102.81 514.505 100.036C514.505 97.1897 515.501 94.8063 517.493 92.8854C519.557 90.9644 522.189 90.004 525.391 90.004C528.521 90.004 531.082 90.9644 533.074 92.8854C535.138 94.8063 536.169 97.1897 536.169 100.036C536.169 102.81 535.138 105.158 533.074 107.079C531.082 108.929 528.521 109.854 525.391 109.854Z" fill="#1F4DE5"/>
</svg>
